<?xml version="1.0" standalone="no"?>
<!DOCTYPE svg PUBLIC "-//W3C//DTD SVG 20010904//EN"
 "http://www.w3.org/TR/2001/REC-SVG-20010904/DTD/svg10.dtd">
<svg version="1.0" xmlns="http://www.w3.org/2000/svg"
 width="700.000000pt" height="700.000000pt" viewBox="0 0 700.000000 700.000000"
 preserveAspectRatio="xMidYMid meet">
<metadata>
Created by potrace 1.11, written by Peter Selinger 2001-2013
</metadata>
<g transform="translate(0.000000,700.000000) scale(0.100000,-0.100000)"
fill="#000000" stroke="none">
<path d="M3369 6936 c-2 -2 -24 -7 -49 -10 -204 -28 -385 -109 -550 -245 -118
-98 -173 -167 -266 -331 -65 -116 -85 -140 -113 -140 -11 0 -61 20 -113 43
-284 133 -573 147 -868 45 -72 -25 -231 -103 -265 -130 -132 -103 -167 -133
-202 -172 -62 -68 -126 -154 -157 -211 -16 -27 -31 -54 -35 -60 -5 -5 -16 -30
-25 -55 -10 -25 -23 -56 -29 -70 -5 -14 -11 -29 -13 -35 -1 -5 -12 -46 -24
-90 -31 -112 -38 -300 -16 -417 22 -115 54 -212 110 -336 26 -56 46 -112 44
-125 -2 -16 -24 -33 -86 -65 -240 -122 -443 -322 -539 -532 -54 -118 -88 -232
-101 -335 -9 -68 -8 -248 0 -315 32 -250 147 -481 327 -660 94 -93 156 -137
289 -207 99 -53 121 -69 118 -88 -1 -8 -28 -65 -59 -127 -86 -171 -115 -304
-111 -509 4 -266 73 -466 228 -668 223 -289 581 -464 946 -463 121 0 215 24
372 93 51 22 119 50 150 62 l57 22 28 -21 c15 -12 48 -59 73 -106 25 -47 65
-112 90 -144 96 -127 305 -311 414 -365 150 -74 315 -112 486 -112 75 1 209
11 221 18 3 2 21 7 40 10 59 10 161 45 249 86 232 108 407 280 530 519 27 53
56 103 64 110 13 10 37 2 138 -49 171 -85 294 -113 498 -115 92 -1 228 14 300
34 25 7 50 13 55 14 29 5 140 55 207 95 201 119 379 313 473 516 44 95 81 204
90 265 1 8 6 29 10 45 4 17 9 86 10 155 4 195 -31 345 -121 523 -64 125 -63
128 71 200 185 99 313 209 417 357 81 116 161 294 183 409 46 239 38 403 -31
628 -66 214 -319 509 -536 622 -119 63 -138 110 -89 228 25 62 74 225 86 288
29 152 24 358 -11 490 -8 33 -17 67 -19 75 -22 92 -134 292 -214 383 -142 161
-373 313 -538 352 -226 55 -430 63 -603 24 -25 -6 -52 -12 -60 -14 -48 -11
-155 -59 -228 -101 -81 -47 -88 -44 -148 76 -138 275 -370 485 -634 573 -138
46 -218 60 -371 63 -81 2 -148 2 -150 0z"/>
</g>
</svg>
