<svg version="1.1" x="0px" y="0px" width="260px" height="80px" xmlns="http://www.w3.org/2000/svg" viewBox="0 -10 51 80">
<g style="fill:#ffffff; stroke:none" transform="translate(-44, 42) scale(1.2, 1.2)">

<path d="m 0,0 -11.75781,0 -1.85547,5.3125 -7.55859,0 10.80078,-29.16016 8.96484,0 10.80079,29.16016 -7.5586,0 -1.83594,-5.3125 z m -9.88281,-5.41016 7.98828,0 -3.98437,-11.60156 -4.00391,11.60156 z" />
<path d="m 39.45313,3.14453 q -2.8125,1.36719 -5.83984,2.05078 -3.02735,0.68359 -6.25,0.68359 -7.28516,0 -11.54297,-4.0625 -4.25782,-4.08203 -4.25782,-11.05468 0,-7.05078 4.33594,-11.09375 4.33594,-4.04297 11.875,-4.04297 2.91016,0 5.56641,0.54687 2.67578,0.54688 5.03906,1.6211 l 0,6.03515 q -2.44141,-1.38672 -4.86328,-2.07031 -2.40234,-0.68359 -4.82422,-0.68359 -4.49219,0 -6.93359,2.51953 -2.42188,2.5 -2.42188,7.16797 0,4.6289 2.34375,7.14843 2.34375,2.51954 6.66016,2.51954 1.17187,0 2.16797,-0.13672 1.01562,-0.15625 1.8164,-0.46875 l 0,-5.66407 -4.58984,0 0,-5.03906 11.71875,0 0,14.02344 z" />
<path d="m 46.05469,-23.84766 8.39844,0 10.60547,20 0,-20 7.1289,0 0,29.16016 -8.39843,0 -10.60547,-20 0,20 -7.12891,0 0,-29.16016 z" />

<g transform="translate(98.61,0)">
    

    
            <g id="logo_agnos" transform="translate(-22,7.03) scale(0.019,-0.019)">
                
            <path style="fill:#ffffff" fill-rule="evenodd" d="m 972,1671 c 51,-22 102,-71 129,-123 22.296,-48.7869 15.9779,-39.583 61,-16 60,31 164,30 232,-2 131,-63 191,-201 147,-340 -13.0443,-49.1903 -39.3502,-69.8057 9,-90 37,-15 107,-90 125,-134 56,-133 -1,-293 -127,-357 -49.6609,-22.52455 -36.8147,-19.39579 -15,-66 61,-134 -3,-297 -142,-365 -64,-31 -169,-31 -228,0 -48.5421,25.49497 -38.5623,30.87533 -62,-16 C 1037,36 877,-21 744,35 700,53 632,116 610,161 c -22.90966,55.06872 -31.09966,32.19855 -82,12 -50,-20 -72,-24 -113,-19 -107,12 -191,71 -237,165 -31,64 -31,169 0,228 25.49497,48.54215 30.87533,38.56233 -16,62 -162,83 -198,309 -70,440 18,18 49,41 69,52 47.87859,21.9581 39.64574,15.362 19,61 -27,63 -33,110 -21,168 39,181 242,279 404,195 26,-14 28,-13 47,23 26,48 37,62 83,97 75,56 186,67 279,26 z M 727,1295 c -59,-16 -106,-38 -172,-80 -28,-18 -73,-43 -100,-56 -121,-56 -245,-154 -245,-194 0,-38 26,-49 126,-53 82,-4 98,-2 130,17 20,12 37,21 38,19 13,-21 21.81504,-64.46662 26,-83 14,-62 6,-42 14,-62 7,-21 20,-58 27,-83 35,-118 109,-231 196,-297 50,-39 126,-39 176,0 87,66 161,179 196,297 7,25 20,62 27,83 8,20 0,0 14,62 4.185,18.53338 13,62 26,83 1,2 18,-7 38,-19 32,-19 48,-21 130,-17 100,4 126,15 126,53 0,40 -124,138 -245,194 -27,13 -72,38 -100,56 -68,43 -112,63 -176,80 -66,18 -187,18 -252,0 z" />
            </g> 
</g> 
<path d="m 133.84766,-22.92969 0,6.17188 q -2.40234,-1.07422 -4.6875,-1.6211 -2.28516,-0.54687 -4.31641,-0.54687 -2.69531,0 -3.98437,0.74218 -1.28906,0.74219 -1.28906,2.30469 0,1.17188 0.85937,1.83594 0.87891,0.64453 3.16406,1.11328 l 3.20313,0.64453 q 4.86328,0.97656 6.91406,2.96875 2.05078,1.99219 2.05078,5.66406 0,4.82422 -2.87109,7.1875 -2.85156,2.34375 -8.73047,2.34375 -2.77344,0 -5.56641,-0.52734 -2.79296,-0.52734 -5.58593,-1.5625 l 0,-6.34766 q 2.79297,1.48438 5.39062,2.2461 2.61719,0.74219 5.03906,0.74219 2.46094,0 3.76954,-0.82032 1.30859,-0.82031 1.30859,-2.34375 0,-1.36718 -0.89844,-2.10937 -0.8789,-0.74219 -3.53515,-1.32813 l -2.91016,-0.64453 q -4.375,-0.9375 -6.40625,-2.98828 -2.01172,-2.05078 -2.01172,-5.52734 0,-4.35547 2.8125,-6.69922 2.8125,-2.34375 8.08594,-2.34375 2.40234,0 4.9414,0.37109 2.53907,0.35156 5.25391,1.07422 z" />
<g transform="translate(98.61,0)">
</g>
</g>
</svg>